<svg width="103" height="100" viewBox="0 0 103 100" fill="none" xmlns="http://www.w3.org/2000/svg">
<g clip-path="url(#clip0_422_7887)">
<path d="M2 4C3.10457 4 4 3.10457 4 2C4 0.89543 3.10457 0 2 0C0.89543 0 0 0.89543 0 2C0 3.10457 0.89543 4 2 4Z" fill="#D9D9D9"/>
<path d="M13 4C14.1046 4 15 3.10457 15 2C15 0.89543 14.1046 0 13 0C11.8954 0 11 0.89543 11 2C11 3.10457 11.8954 4 13 4Z" fill="#D9D9D9"/>
<path d="M24 4C25.1046 4 26 3.10457 26 2C26 0.89543 25.1046 0 24 0C22.8954 0 22 0.89543 22 2C22 3.10457 22.8954 4 24 4Z" fill="#D9D9D9"/>
<path d="M35 4C36.1046 4 37 3.10457 37 2C37 0.89543 36.1046 0 35 0C33.8954 0 33 0.89543 33 2C33 3.10457 33.8954 4 35 4Z" fill="#D9D9D9"/>
<path d="M46 4C47.1046 4 48 3.10457 48 2C48 0.89543 47.1046 0 46 0C44.8954 0 44 0.89543 44 2C44 3.10457 44.8954 4 46 4Z" fill="#D9D9D9"/>
<path d="M57 4C58.1046 4 59 3.10457 59 2C59 0.89543 58.1046 0 57 0C55.8954 0 55 0.89543 55 2C55 3.10457 55.8954 4 57 4Z" fill="#D9D9D9"/>
<path d="M68 4C69.1046 4 70 3.10457 70 2C70 0.89543 69.1046 0 68 0C66.8954 0 66 0.89543 66 2C66 3.10457 66.8954 4 68 4Z" fill="#D9D9D9"/>
<path d="M79 4C80.1046 4 81 3.10457 81 2C81 0.89543 80.1046 0 79 0C77.8954 0 77 0.89543 77 2C77 3.10457 77.8954 4 79 4Z" fill="#D9D9D9"/>
<path d="M90 4C91.1046 4 92 3.10457 92 2C92 0.89543 91.1046 0 90 0C88.8954 0 88 0.89543 88 2C88 3.10457 88.8954 4 90 4Z" fill="#D9D9D9"/>
<path d="M101 4C102.105 4 103 3.10457 103 2C103 0.89543 102.105 0 101 0C99.8954 0 99 0.89543 99 2C99 3.10457 99.8954 4 101 4Z" fill="#D9D9D9"/>
<path d="M2 16C3.10457 16 4 15.1046 4 14C4 12.8954 3.10457 12 2 12C0.89543 12 0 12.8954 0 14C0 15.1046 0.89543 16 2 16Z" fill="#D9D9D9"/>
<path d="M13 16C14.1046 16 15 15.1046 15 14C15 12.8954 14.1046 12 13 12C11.8954 12 11 12.8954 11 14C11 15.1046 11.8954 16 13 16Z" fill="#D9D9D9"/>
<path d="M24 16C25.1046 16 26 15.1046 26 14C26 12.8954 25.1046 12 24 12C22.8954 12 22 12.8954 22 14C22 15.1046 22.8954 16 24 16Z" fill="#D9D9D9"/>
<path d="M35 16C36.1046 16 37 15.1046 37 14C37 12.8954 36.1046 12 35 12C33.8954 12 33 12.8954 33 14C33 15.1046 33.8954 16 35 16Z" fill="#D9D9D9"/>
<path d="M46 16C47.1046 16 48 15.1046 48 14C48 12.8954 47.1046 12 46 12C44.8954 12 44 12.8954 44 14C44 15.1046 44.8954 16 46 16Z" fill="#D9D9D9"/>
<path d="M57 16C58.1046 16 59 15.1046 59 14C59 12.8954 58.1046 12 57 12C55.8954 12 55 12.8954 55 14C55 15.1046 55.8954 16 57 16Z" fill="#D9D9D9"/>
<path d="M68 16C69.1046 16 70 15.1046 70 14C70 12.8954 69.1046 12 68 12C66.8954 12 66 12.8954 66 14C66 15.1046 66.8954 16 68 16Z" fill="#D9D9D9"/>
<path d="M79 16C80.1046 16 81 15.1046 81 14C81 12.8954 80.1046 12 79 12C77.8954 12 77 12.8954 77 14C77 15.1046 77.8954 16 79 16Z" fill="#D9D9D9"/>
<path d="M90 16C91.1046 16 92 15.1046 92 14C92 12.8954 91.1046 12 90 12C88.8954 12 88 12.8954 88 14C88 15.1046 88.8954 16 90 16Z" fill="#D9D9D9"/>
<path d="M101 16C102.105 16 103 15.1046 103 14C103 12.8954 102.105 12 101 12C99.8954 12 99 12.8954 99 14C99 15.1046 99.8954 16 101 16Z" fill="#D9D9D9"/>
<path d="M2 28C3.10457 28 4 27.1046 4 26C4 24.8954 3.10457 24 2 24C0.89543 24 0 24.8954 0 26C0 27.1046 0.89543 28 2 28Z" fill="#D9D9D9"/>
<path d="M13 28C14.1046 28 15 27.1046 15 26C15 24.8954 14.1046 24 13 24C11.8954 24 11 24.8954 11 26C11 27.1046 11.8954 28 13 28Z" fill="#D9D9D9"/>
<path d="M24 28C25.1046 28 26 27.1046 26 26C26 24.8954 25.1046 24 24 24C22.8954 24 22 24.8954 22 26C22 27.1046 22.8954 28 24 28Z" fill="#D9D9D9"/>
<path d="M35 28C36.1046 28 37 27.1046 37 26C37 24.8954 36.1046 24 35 24C33.8954 24 33 24.8954 33 26C33 27.1046 33.8954 28 35 28Z" fill="#D9D9D9"/>
<path d="M46 28C47.1046 28 48 27.1046 48 26C48 24.8954 47.1046 24 46 24C44.8954 24 44 24.8954 44 26C44 27.1046 44.8954 28 46 28Z" fill="#D9D9D9"/>
<path d="M57 28C58.1046 28 59 27.1046 59 26C59 24.8954 58.1046 24 57 24C55.8954 24 55 24.8954 55 26C55 27.1046 55.8954 28 57 28Z" fill="#D9D9D9"/>
<path d="M68 28C69.1046 28 70 27.1046 70 26C70 24.8954 69.1046 24 68 24C66.8954 24 66 24.8954 66 26C66 27.1046 66.8954 28 68 28Z" fill="#D9D9D9"/>
<path d="M79 28C80.1046 28 81 27.1046 81 26C81 24.8954 80.1046 24 79 24C77.8954 24 77 24.8954 77 26C77 27.1046 77.8954 28 79 28Z" fill="#D9D9D9"/>
<path d="M90 28C91.1046 28 92 27.1046 92 26C92 24.8954 91.1046 24 90 24C88.8954 24 88 24.8954 88 26C88 27.1046 88.8954 28 90 28Z" fill="#D9D9D9"/>
<path d="M101 28C102.105 28 103 27.1046 103 26C103 24.8954 102.105 24 101 24C99.8954 24 99 24.8954 99 26C99 27.1046 99.8954 28 101 28Z" fill="#D9D9D9"/>
<path d="M2 40C3.10457 40 4 39.1046 4 38C4 36.8954 3.10457 36 2 36C0.89543 36 0 36.8954 0 38C0 39.1046 0.89543 40 2 40Z" fill="#D9D9D9"/>
<path d="M13 40C14.1046 40 15 39.1046 15 38C15 36.8954 14.1046 36 13 36C11.8954 36 11 36.8954 11 38C11 39.1046 11.8954 40 13 40Z" fill="#D9D9D9"/>
<path d="M24 40C25.1046 40 26 39.1046 26 38C26 36.8954 25.1046 36 24 36C22.8954 36 22 36.8954 22 38C22 39.1046 22.8954 40 24 40Z" fill="#D9D9D9"/>
<path d="M35 40C36.1046 40 37 39.1046 37 38C37 36.8954 36.1046 36 35 36C33.8954 36 33 36.8954 33 38C33 39.1046 33.8954 40 35 40Z" fill="#D9D9D9"/>
<path d="M46 40C47.1046 40 48 39.1046 48 38C48 36.8954 47.1046 36 46 36C44.8954 36 44 36.8954 44 38C44 39.1046 44.8954 40 46 40Z" fill="#D9D9D9"/>
<path d="M57 40C58.1046 40 59 39.1046 59 38C59 36.8954 58.1046 36 57 36C55.8954 36 55 36.8954 55 38C55 39.1046 55.8954 40 57 40Z" fill="#D9D9D9"/>
<path d="M68 40C69.1046 40 70 39.1046 70 38C70 36.8954 69.1046 36 68 36C66.8954 36 66 36.8954 66 38C66 39.1046 66.8954 40 68 40Z" fill="#D9D9D9"/>
<path d="M79 40C80.1046 40 81 39.1046 81 38C81 36.8954 80.1046 36 79 36C77.8954 36 77 36.8954 77 38C77 39.1046 77.8954 40 79 40Z" fill="#D9D9D9"/>
<path d="M90 40C91.1046 40 92 39.1046 92 38C92 36.8954 91.1046 36 90 36C88.8954 36 88 36.8954 88 38C88 39.1046 88.8954 40 90 40Z" fill="#D9D9D9"/>
<path d="M101 40C102.105 40 103 39.1046 103 38C103 36.8954 102.105 36 101 36C99.8954 36 99 36.8954 99 38C99 39.1046 99.8954 40 101 40Z" fill="#D9D9D9"/>
<path d="M2 52C3.10457 52 4 51.1046 4 50C4 48.8954 3.10457 48 2 48C0.89543 48 0 48.8954 0 50C0 51.1046 0.89543 52 2 52Z" fill="#D9D9D9"/>
<path d="M13 52C14.1046 52 15 51.1046 15 50C15 48.8954 14.1046 48 13 48C11.8954 48 11 48.8954 11 50C11 51.1046 11.8954 52 13 52Z" fill="#D9D9D9"/>
<path d="M24 52C25.1046 52 26 51.1046 26 50C26 48.8954 25.1046 48 24 48C22.8954 48 22 48.8954 22 50C22 51.1046 22.8954 52 24 52Z" fill="#D9D9D9"/>
<path d="M35 52C36.1046 52 37 51.1046 37 50C37 48.8954 36.1046 48 35 48C33.8954 48 33 48.8954 33 50C33 51.1046 33.8954 52 35 52Z" fill="#D9D9D9"/>
<path d="M46 52C47.1046 52 48 51.1046 48 50C48 48.8954 47.1046 48 46 48C44.8954 48 44 48.8954 44 50C44 51.1046 44.8954 52 46 52Z" fill="#D9D9D9"/>
<path d="M57 52C58.1046 52 59 51.1046 59 50C59 48.8954 58.1046 48 57 48C55.8954 48 55 48.8954 55 50C55 51.1046 55.8954 52 57 52Z" fill="#D9D9D9"/>
<path d="M68 52C69.1046 52 70 51.1046 70 50C70 48.8954 69.1046 48 68 48C66.8954 48 66 48.8954 66 50C66 51.1046 66.8954 52 68 52Z" fill="#D9D9D9"/>
<path d="M79 52C80.1046 52 81 51.1046 81 50C81 48.8954 80.1046 48 79 48C77.8954 48 77 48.8954 77 50C77 51.1046 77.8954 52 79 52Z" fill="#D9D9D9"/>
<path d="M90 52C91.1046 52 92 51.1046 92 50C92 48.8954 91.1046 48 90 48C88.8954 48 88 48.8954 88 50C88 51.1046 88.8954 52 90 52Z" fill="#D9D9D9"/>
<path d="M101 52C102.105 52 103 51.1046 103 50C103 48.8954 102.105 48 101 48C99.8954 48 99 48.8954 99 50C99 51.1046 99.8954 52 101 52Z" fill="#D9D9D9"/>
<path d="M2 64C3.10457 64 4 63.1046 4 62C4 60.8954 3.10457 60 2 60C0.89543 60 0 60.8954 0 62C0 63.1046 0.89543 64 2 64Z" fill="#D9D9D9"/>
<path d="M13 64C14.1046 64 15 63.1046 15 62C15 60.8954 14.1046 60 13 60C11.8954 60 11 60.8954 11 62C11 63.1046 11.8954 64 13 64Z" fill="#D9D9D9"/>
<path d="M24 64C25.1046 64 26 63.1046 26 62C26 60.8954 25.1046 60 24 60C22.8954 60 22 60.8954 22 62C22 63.1046 22.8954 64 24 64Z" fill="#D9D9D9"/>
<path d="M35 64C36.1046 64 37 63.1046 37 62C37 60.8954 36.1046 60 35 60C33.8954 60 33 60.8954 33 62C33 63.1046 33.8954 64 35 64Z" fill="#D9D9D9"/>
<path d="M46 64C47.1046 64 48 63.1046 48 62C48 60.8954 47.1046 60 46 60C44.8954 60 44 60.8954 44 62C44 63.1046 44.8954 64 46 64Z" fill="#D9D9D9"/>
<path d="M57 64C58.1046 64 59 63.1046 59 62C59 60.8954 58.1046 60 57 60C55.8954 60 55 60.8954 55 62C55 63.1046 55.8954 64 57 64Z" fill="#D9D9D9"/>
<path d="M68 64C69.1046 64 70 63.1046 70 62C70 60.8954 69.1046 60 68 60C66.8954 60 66 60.8954 66 62C66 63.1046 66.8954 64 68 64Z" fill="#D9D9D9"/>
<path d="M79 64C80.1046 64 81 63.1046 81 62C81 60.8954 80.1046 60 79 60C77.8954 60 77 60.8954 77 62C77 63.1046 77.8954 64 79 64Z" fill="#D9D9D9"/>
<path d="M90 64C91.1046 64 92 63.1046 92 62C92 60.8954 91.1046 60 90 60C88.8954 60 88 60.8954 88 62C88 63.1046 88.8954 64 90 64Z" fill="#D9D9D9"/>
<path d="M101 64C102.105 64 103 63.1046 103 62C103 60.8954 102.105 60 101 60C99.8954 60 99 60.8954 99 62C99 63.1046 99.8954 64 101 64Z" fill="#D9D9D9"/>
<path d="M2 76C3.10457 76 4 75.1046 4 74C4 72.8954 3.10457 72 2 72C0.89543 72 0 72.8954 0 74C0 75.1046 0.89543 76 2 76Z" fill="#D9D9D9"/>
<path d="M13 76C14.1046 76 15 75.1046 15 74C15 72.8954 14.1046 72 13 72C11.8954 72 11 72.8954 11 74C11 75.1046 11.8954 76 13 76Z" fill="#D9D9D9"/>
<path d="M24 76C25.1046 76 26 75.1046 26 74C26 72.8954 25.1046 72 24 72C22.8954 72 22 72.8954 22 74C22 75.1046 22.8954 76 24 76Z" fill="#D9D9D9"/>
<path d="M35 76C36.1046 76 37 75.1046 37 74C37 72.8954 36.1046 72 35 72C33.8954 72 33 72.8954 33 74C33 75.1046 33.8954 76 35 76Z" fill="#D9D9D9"/>
<path d="M46 76C47.1046 76 48 75.1046 48 74C48 72.8954 47.1046 72 46 72C44.8954 72 44 72.8954 44 74C44 75.1046 44.8954 76 46 76Z" fill="#D9D9D9"/>
<path d="M57 76C58.1046 76 59 75.1046 59 74C59 72.8954 58.1046 72 57 72C55.8954 72 55 72.8954 55 74C55 75.1046 55.8954 76 57 76Z" fill="#D9D9D9"/>
<path d="M68 76C69.1046 76 70 75.1046 70 74C70 72.8954 69.1046 72 68 72C66.8954 72 66 72.8954 66 74C66 75.1046 66.8954 76 68 76Z" fill="#D9D9D9"/>
<path d="M79 76C80.1046 76 81 75.1046 81 74C81 72.8954 80.1046 72 79 72C77.8954 72 77 72.8954 77 74C77 75.1046 77.8954 76 79 76Z" fill="#D9D9D9"/>
<path d="M90 76C91.1046 76 92 75.1046 92 74C92 72.8954 91.1046 72 90 72C88.8954 72 88 72.8954 88 74C88 75.1046 88.8954 76 90 76Z" fill="#D9D9D9"/>
<path d="M101 76C102.105 76 103 75.1046 103 74C103 72.8954 102.105 72 101 72C99.8954 72 99 72.8954 99 74C99 75.1046 99.8954 76 101 76Z" fill="#D9D9D9"/>
<path d="M2 88C3.10457 88 4 87.1046 4 86C4 84.8954 3.10457 84 2 84C0.89543 84 0 84.8954 0 86C0 87.1046 0.89543 88 2 88Z" fill="#D9D9D9"/>
<path d="M13 88C14.1046 88 15 87.1046 15 86C15 84.8954 14.1046 84 13 84C11.8954 84 11 84.8954 11 86C11 87.1046 11.8954 88 13 88Z" fill="#D9D9D9"/>
<path d="M24 88C25.1046 88 26 87.1046 26 86C26 84.8954 25.1046 84 24 84C22.8954 84 22 84.8954 22 86C22 87.1046 22.8954 88 24 88Z" fill="#D9D9D9"/>
<path d="M35 88C36.1046 88 37 87.1046 37 86C37 84.8954 36.1046 84 35 84C33.8954 84 33 84.8954 33 86C33 87.1046 33.8954 88 35 88Z" fill="#D9D9D9"/>
<path d="M46 88C47.1046 88 48 87.1046 48 86C48 84.8954 47.1046 84 46 84C44.8954 84 44 84.8954 44 86C44 87.1046 44.8954 88 46 88Z" fill="#D9D9D9"/>
<path d="M57 88C58.1046 88 59 87.1046 59 86C59 84.8954 58.1046 84 57 84C55.8954 84 55 84.8954 55 86C55 87.1046 55.8954 88 57 88Z" fill="#D9D9D9"/>
<path d="M68 88C69.1046 88 70 87.1046 70 86C70 84.8954 69.1046 84 68 84C66.8954 84 66 84.8954 66 86C66 87.1046 66.8954 88 68 88Z" fill="#D9D9D9"/>
<path d="M79 88C80.1046 88 81 87.1046 81 86C81 84.8954 80.1046 84 79 84C77.8954 84 77 84.8954 77 86C77 87.1046 77.8954 88 79 88Z" fill="#D9D9D9"/>
<path d="M90 88C91.1046 88 92 87.1046 92 86C92 84.8954 91.1046 84 90 84C88.8954 84 88 84.8954 88 86C88 87.1046 88.8954 88 90 88Z" fill="#D9D9D9"/>
<path d="M101 88C102.105 88 103 87.1046 103 86C103 84.8954 102.105 84 101 84C99.8954 84 99 84.8954 99 86C99 87.1046 99.8954 88 101 88Z" fill="#D9D9D9"/>
<path d="M2 100C3.10457 100 4 99.1046 4 98C4 96.8954 3.10457 96 2 96C0.89543 96 0 96.8954 0 98C0 99.1046 0.89543 100 2 100Z" fill="#D9D9D9"/>
<path d="M13 100C14.1046 100 15 99.1046 15 98C15 96.8954 14.1046 96 13 96C11.8954 96 11 96.8954 11 98C11 99.1046 11.8954 100 13 100Z" fill="#D9D9D9"/>
<path d="M24 100C25.1046 100 26 99.1046 26 98C26 96.8954 25.1046 96 24 96C22.8954 96 22 96.8954 22 98C22 99.1046 22.8954 100 24 100Z" fill="#D9D9D9"/>
<path d="M35 100C36.1046 100 37 99.1046 37 98C37 96.8954 36.1046 96 35 96C33.8954 96 33 96.8954 33 98C33 99.1046 33.8954 100 35 100Z" fill="#D9D9D9"/>
<path d="M46 100C47.1046 100 48 99.1046 48 98C48 96.8954 47.1046 96 46 96C44.8954 96 44 96.8954 44 98C44 99.1046 44.8954 100 46 100Z" fill="#D9D9D9"/>
<path d="M57 100C58.1046 100 59 99.1046 59 98C59 96.8954 58.1046 96 57 96C55.8954 96 55 96.8954 55 98C55 99.1046 55.8954 100 57 100Z" fill="#D9D9D9"/>
<path d="M68 100C69.1046 100 70 99.1046 70 98C70 96.8954 69.1046 96 68 96C66.8954 96 66 96.8954 66 98C66 99.1046 66.8954 100 68 100Z" fill="#D9D9D9"/>
<path d="M79 100C80.1046 100 81 99.1046 81 98C81 96.8954 80.1046 96 79 96C77.8954 96 77 96.8954 77 98C77 99.1046 77.8954 100 79 100Z" fill="#D9D9D9"/>
<path d="M90 100C91.1046 100 92 99.1046 92 98C92 96.8954 91.1046 96 90 96C88.8954 96 88 96.8954 88 98C88 99.1046 88.8954 100 90 100Z" fill="#D9D9D9"/>
<path d="M101 100C102.105 100 103 99.1046 103 98C103 96.8954 102.105 96 101 96C99.8954 96 99 96.8954 99 98C99 99.1046 99.8954 100 101 100Z" fill="#D9D9D9"/>
</g>
<defs>
<clipPath id="clip0_422_7887">
<rect width="103" height="100" fill="white"/>
</clipPath>
</defs>
</svg>
